<svg width="146" height="61" viewBox="0 0 146 61" fill="none" xmlns="http://www.w3.org/2000/svg">
    <path d="M0.425 22.2C1.125 22.1333 1.7 21.925 2.15 21.575C2.61667 21.2417 2.96667 20.675 3.2 19.875C3.45 19.0917 3.575 18.0167 3.575 16.65V2.95C3.575 2.31667 3.525 1.85833 3.425 1.575C3.34167 1.29167 3.16667 1.1 2.9 1C2.65 0.899999 2.25 0.833332 1.7 0.799999V0.3C2.53333 0.349999 3.79167 0.374999 5.475 0.374999C7.19167 0.374999 8.50833 0.349999 9.425 0.3V0.799999C8.85833 0.833332 8.45 0.899999 8.2 1C7.95 1.1 7.775 1.29167 7.675 1.575C7.59167 1.85833 7.55 2.31667 7.55 2.95V12.1V13.625C7.55 15.975 7.40833 17.6417 7.125 18.625C6.775 19.8417 6.025 20.825 4.875 21.575C3.74167 22.325 2.25833 22.7 0.425 22.7V22.2ZM16.6926 4.725C18.6092 4.725 20.1092 5.275 21.1926 6.375C22.2759 7.45833 22.8176 9.18333 22.8176 11.55C22.8176 13.9167 22.2759 15.6417 21.1926 16.725C20.1092 17.8083 18.6092 18.35 16.6926 18.35C14.7926 18.35 13.2926 17.8083 12.1926 16.725C11.1092 15.6417 10.5676 13.9167 10.5676 11.55C10.5676 9.18333 11.1092 7.45833 12.1926 6.375C13.2926 5.275 14.7926 4.725 16.6926 4.725ZM16.6926 5.225C15.9759 5.225 15.4009 5.75 14.9676 6.8C14.5509 7.83333 14.3426 9.41667 14.3426 11.55C14.3426 13.6833 14.5509 15.2667 14.9676 16.3C15.4009 17.3333 15.9759 17.85 16.6926 17.85C17.4259 17.85 18.0009 17.3417 18.4176 16.325C18.8342 15.2917 19.0426 13.7 19.0426 11.55C19.0426 9.4 18.8259 7.80833 18.3926 6.775C17.9759 5.74167 17.4092 5.225 16.6926 5.225ZM31.7283 16.3C33.095 16.3 34.195 15.6333 35.0283 14.3L35.4783 14.45C35.145 15.5333 34.545 16.4583 33.6783 17.225C32.8283 17.975 31.7617 18.35 30.4783 18.35C28.7117 18.35 27.3033 17.7917 26.2533 16.675C25.22 15.5417 24.7033 13.875 24.7033 11.675C24.7033 9.425 25.2617 7.70833 26.3783 6.525C27.495 5.325 28.9783 4.725 30.8283 4.725C33.9617 4.725 35.5283 6.575 35.5283 10.275H28.5033C28.4867 10.525 28.4783 10.9167 28.4783 11.45C28.4783 12.55 28.6283 13.4667 28.9283 14.2C29.245 14.9333 29.645 15.4667 30.1283 15.8C30.6283 16.1333 31.1617 16.3 31.7283 16.3ZM30.6783 5.25C30.0783 5.25 29.5783 5.625 29.1783 6.375C28.795 7.10833 28.5533 8.25 28.4533 9.8H32.3783C32.4117 8.48333 32.2783 7.4 31.9783 6.55C31.695 5.68333 31.2617 5.25 30.6783 5.25ZM41.6359 22.2C42.3359 22.1333 42.9109 21.925 43.3609 21.575C43.8276 21.2417 44.1776 20.675 44.4109 19.875C44.6609 19.0917 44.7859 18.0167 44.7859 16.65V2.95C44.7859 2.31667 44.7359 1.85833 44.6359 1.575C44.5526 1.29167 44.3776 1.1 44.1109 1C43.8609 0.899999 43.4609 0.833332 42.9109 0.799999V0.3C43.7443 0.349999 45.0026 0.374999 46.6859 0.374999C48.4026 0.374999 49.7193 0.349999 50.6359 0.3V0.799999C50.0693 0.833332 49.6609 0.899999 49.4109 1C49.1609 1.1 48.9859 1.29167 48.8859 1.575C48.8026 1.85833 48.7609 2.31667 48.7609 2.95V12.1V13.625C48.7609 15.975 48.6193 17.6417 48.3359 18.625C47.9859 19.8417 47.2359 20.825 46.0859 21.575C44.9526 22.325 43.4693 22.7 41.6359 22.7V22.2ZM57.9035 4.725C59.8202 4.725 61.3202 5.275 62.4035 6.375C63.4868 7.45833 64.0285 9.18333 64.0285 11.55C64.0285 13.9167 63.4868 15.6417 62.4035 16.725C61.3202 17.8083 59.8202 18.35 57.9035 18.35C56.0035 18.35 54.5035 17.8083 53.4035 16.725C52.3202 15.6417 51.7785 13.9167 51.7785 11.55C51.7785 9.18333 52.3202 7.45833 53.4035 6.375C54.5035 5.275 56.0035 4.725 57.9035 4.725ZM57.9035 5.225C57.1868 5.225 56.6118 5.75 56.1785 6.8C55.7618 7.83333 55.5535 9.41667 55.5535 11.55C55.5535 13.6833 55.7618 15.2667 56.1785 16.3C56.6118 17.3333 57.1868 17.85 57.9035 17.85C58.6368 17.85 59.2118 17.3417 59.6285 16.325C60.0452 15.2917 60.2535 13.7 60.2535 11.55C60.2535 9.4 60.0368 7.80833 59.6035 6.775C59.1868 5.74167 58.6202 5.225 57.9035 5.225ZM74.8893 4.725C76.1559 4.725 77.0726 5.05 77.6393 5.7C77.9226 6.01667 78.1226 6.425 78.2393 6.925C78.3559 7.425 78.4143 8.1 78.4143 8.95V15.675C78.4143 16.3583 78.5309 16.8333 78.7643 17.1C79.0143 17.35 79.4309 17.475 80.0143 17.475V18C78.3476 17.9333 77.2476 17.9 76.7143 17.9C76.2143 17.9 75.1309 17.9333 73.4643 18V17.475C73.9643 17.475 74.3143 17.35 74.5143 17.1C74.7143 16.8333 74.8143 16.3583 74.8143 15.675V7.9C74.8143 7.21667 74.6976 6.7 74.4643 6.35C74.2476 6 73.8476 5.825 73.2643 5.825C72.5809 5.825 71.9976 6.10833 71.5143 6.675C71.0309 7.225 70.7893 7.90833 70.7893 8.725V15.675C70.7893 16.3583 70.8893 16.8333 71.0893 17.1C71.2893 17.35 71.6393 17.475 72.1393 17.475V18C70.6059 17.9333 69.5726 17.9 69.0393 17.9C68.5393 17.9 67.3893 17.9333 65.5893 18V17.475C66.1893 17.475 66.6059 17.35 66.8393 17.1C67.0726 16.8333 67.1893 16.3583 67.1893 15.675V7.8C67.1893 7.03333 67.0726 6.475 66.8393 6.125C66.6059 5.775 66.1893 5.6 65.5893 5.6V5.075C66.1226 5.125 66.6393 5.15 67.1393 5.15C68.6226 5.15 69.8393 5.03333 70.7893 4.8V7.05C71.5393 5.5 72.9059 4.725 74.8893 4.725ZM84.2457 18.175C83.179 18.175 82.379 17.9 81.8457 17.35C81.329 16.8 81.0707 16.075 81.0707 15.175C81.0707 14.425 81.2624 13.8083 81.6457 13.325C82.0457 12.825 82.5207 12.4417 83.0707 12.175C83.6374 11.9083 84.354 11.625 85.2207 11.325C86.1374 11.0083 86.804 10.725 87.2207 10.475C87.654 10.2083 87.8707 9.85 87.8707 9.4V7.45C87.8707 6.75 87.704 6.20833 87.3707 5.825C87.054 5.425 86.554 5.225 85.8707 5.225C85.0707 5.225 84.4624 5.425 84.0457 5.825C84.5124 5.99167 84.8707 6.24167 85.1207 6.575C85.3874 6.90833 85.5207 7.3 85.5207 7.75C85.5207 8.31667 85.329 8.76667 84.9457 9.1C84.5624 9.43333 84.0957 9.6 83.5457 9.6C82.9624 9.6 82.5124 9.41667 82.1957 9.05C81.879 8.68333 81.7207 8.225 81.7207 7.675C81.7207 7.20833 81.829 6.81667 82.0457 6.5C82.279 6.16667 82.629 5.85833 83.0957 5.575C83.5457 5.30833 84.0957 5.1 84.7457 4.95C85.4124 4.8 86.1374 4.725 86.9207 4.725C87.7374 4.725 88.4457 4.80833 89.0457 4.975C89.6457 5.14167 90.1457 5.425 90.5457 5.825C90.9124 6.19167 91.154 6.64167 91.2707 7.175C91.404 7.70833 91.4707 8.43333 91.4707 9.35V16.15C91.4707 16.55 91.504 16.8333 91.5707 17C91.654 17.1667 91.804 17.25 92.0207 17.25C92.2707 17.25 92.5707 17.1083 92.9207 16.825L93.1707 17.25C92.4207 17.8667 91.504 18.175 90.4207 18.175C89.504 18.175 88.8624 17.9917 88.4957 17.625C88.129 17.2583 87.9374 16.7667 87.9207 16.15C87.0874 17.5 85.8624 18.175 84.2457 18.175ZM86.1707 16.575C86.8207 16.575 87.3874 16.2333 87.8707 15.55V10.425C87.6707 10.7583 87.2457 11.125 86.5957 11.525C85.9457 11.9417 85.454 12.3583 85.1207 12.775C84.7874 13.1917 84.6207 13.7917 84.6207 14.575C84.6207 15.2583 84.7624 15.7667 85.0457 16.1C85.329 16.4167 85.704 16.575 86.1707 16.575ZM98.8352 4.725C99.4685 4.725 100.052 4.80833 100.585 4.975C101.118 5.125 101.527 5.3 101.81 5.5C101.977 5.61667 102.127 5.675 102.26 5.675C102.41 5.675 102.535 5.6 102.635 5.45C102.752 5.28333 102.827 5.05 102.86 4.75H103.385C103.318 5.6 103.285 7.06667 103.285 9.15H102.76C102.61 8.05 102.277 7.13333 101.76 6.4C101.26 5.65 100.527 5.275 99.5602 5.275C99.0602 5.275 98.6435 5.41667 98.3102 5.7C97.9935 5.98333 97.8352 6.375 97.8352 6.875C97.8352 7.44167 98.0268 7.93333 98.4102 8.35C98.7935 8.75 99.3935 9.24167 100.21 9.825L100.935 10.35C101.952 11.1167 102.702 11.8 103.185 12.4C103.668 13 103.91 13.75 103.91 14.65C103.91 15.3833 103.693 16.0333 103.26 16.6C102.843 17.1667 102.277 17.6 101.56 17.9C100.843 18.2 100.052 18.35 99.1852 18.35C98.2685 18.35 97.4852 18.175 96.8352 17.825C96.3018 17.5583 95.9185 17.3833 95.6852 17.3C95.5185 17.25 95.3685 17.3083 95.2352 17.475C95.1185 17.625 95.0268 17.8583 94.9602 18.175H94.4352C94.5018 17.225 94.5352 15.5583 94.5352 13.175H95.0602C95.3935 16.2417 96.5185 17.775 98.4352 17.775C98.9185 17.775 99.3268 17.6333 99.6602 17.35C100.01 17.05 100.185 16.6 100.185 16C100.185 15.5333 100.077 15.1167 99.8602 14.75C99.6602 14.3833 99.4018 14.0583 99.0852 13.775C98.7685 13.4917 98.2935 13.1 97.6602 12.6C96.9102 12 96.3352 11.5167 95.9352 11.15C95.5518 10.7833 95.2185 10.35 94.9352 9.85C94.6685 9.35 94.5352 8.79167 94.5352 8.175C94.5352 7.10833 94.9518 6.26667 95.7852 5.65C96.6185 5.03333 97.6352 4.725 98.8352 4.725Z" fill="#252525"/>
    <path d="M11.525 38.325C13.1583 38.325 14.3917 38.6667 15.225 39.35C16.075 40.0167 16.5 40.9333 16.5 42.1C16.5 43.4 16.1 44.5667 15.3 45.6C14.5167 46.6333 13.4083 47.4417 11.975 48.025C10.5417 48.6083 8.90833 48.9 7.075 48.9H6.325L5.15 53.35C5.11667 53.4667 5.06667 53.6667 5 53.95C4.93333 54.2167 4.9 54.4333 4.9 54.6C4.9 54.9167 5.025 55.1417 5.275 55.275C5.525 55.4083 5.975 55.4833 6.625 55.5L6.525 56C5.75833 55.95 4.725 55.925 3.425 55.925C1.95833 55.925 0.875 55.95 0.175 56L0.275 55.5C0.875 55.4667 1.325 55.4 1.625 55.3C1.925 55.2 2.15833 55.0083 2.325 54.725C2.50833 54.4417 2.68333 53.9833 2.85 53.35L6.15 40.95C6.3 40.35 6.375 39.95 6.375 39.75C6.375 39.4167 6.25 39.1833 6 39.05C5.75 38.9 5.30833 38.8167 4.675 38.8L4.8 38.3C5.46667 38.35 6.49167 38.375 7.875 38.375C8.675 38.375 9.275 38.3667 9.675 38.35L11.525 38.325ZM7.325 48.4C9.65833 48.4 11.35 47.7917 12.4 46.575C13.45 45.3583 13.975 43.7333 13.975 41.7C13.975 40.7167 13.725 39.9917 13.225 39.525C12.725 39.0417 11.9167 38.8 10.8 38.8C10.3 38.8 9.90833 38.8667 9.625 39C9.34167 39.1167 9.10833 39.325 8.925 39.625C8.75833 39.925 8.6 40.3667 8.45 40.95L6.475 48.4H7.325ZM27.8717 51.95L27.2467 53.775C26.6467 55.4917 25.6383 56.35 24.2217 56.35C23.055 56.35 22.4717 55.8333 22.4717 54.8C22.4717 54.3 22.605 53.65 22.8717 52.85L25.2467 45.7C25.4133 45.2333 25.4967 44.8167 25.4967 44.45C25.4967 43.8833 25.23 43.6 24.6967 43.6C24.08 43.6 23.4133 43.9917 22.6967 44.775C21.9967 45.5417 21.2883 46.625 20.5717 48.025C19.855 49.425 19.1883 51.05 18.5717 52.9L17.6717 56H15.4967L20.4467 39.325C20.53 39.0417 20.5717 38.8167 20.5717 38.65C20.5717 38.3167 20.4383 38.075 20.1717 37.925C19.905 37.7583 19.4633 37.675 18.8467 37.675L18.9967 37.15C20.73 37.1333 22.23 36.7917 23.4967 36.125L19.8717 48.525C20.7717 46.4917 21.6717 45.0333 22.5717 44.15C23.4717 43.25 24.455 42.8 25.5217 42.8C26.8717 42.8 27.5467 43.4333 27.5467 44.7C27.5467 45.2333 27.4217 45.8583 27.1717 46.575L24.7467 53.875C24.6133 54.275 24.5467 54.5917 24.5467 54.825C24.5467 55.225 24.7467 55.425 25.1467 55.425C25.48 55.425 25.7967 55.2417 26.0967 54.875C26.4133 54.4917 26.7383 53.825 27.0717 52.875L27.3967 51.95H27.8717ZM29.65 52.425C29.65 51.1083 29.9417 49.7 30.525 48.2C31.1083 46.6833 31.95 45.4083 33.05 44.375C34.15 43.325 35.425 42.8 36.875 42.8C37.9417 42.8 38.775 43.1333 39.375 43.8C39.9917 44.45 40.3 45.425 40.3 46.725C40.3 48.0417 40.0083 49.4583 39.425 50.975C38.8417 52.475 38 53.75 36.9 54.8C35.8 55.8333 34.525 56.35 33.075 56.35C32.0083 56.35 31.1667 56.025 30.55 55.375C29.95 54.7083 29.65 53.725 29.65 52.425ZM36.725 43.3C35.875 43.3 35.0667 43.8417 34.3 44.925C33.55 46.0083 32.9417 47.3667 32.475 49C32.025 50.6167 31.8 52.175 31.8 53.675C31.8 54.425 31.9167 54.975 32.15 55.325C32.3833 55.675 32.7417 55.85 33.225 55.85C34.075 55.85 34.875 55.3083 35.625 54.225C36.3917 53.1417 37 51.7917 37.45 50.175C37.9167 48.5417 38.15 46.975 38.15 45.475C38.15 44.725 38.0333 44.175 37.8 43.825C37.5667 43.475 37.2083 43.3 36.725 43.3ZM44.357 53.875C44.307 54.075 44.282 54.2583 44.282 54.425C44.282 54.7583 44.382 55.0083 44.582 55.175C44.782 55.3417 45.0404 55.425 45.357 55.425C45.7737 55.425 46.157 55.25 46.507 54.9C46.8737 54.5333 47.232 53.875 47.582 52.925L47.932 51.95H48.407L47.882 53.525C47.532 54.5583 47.0737 55.2917 46.507 55.725C45.957 56.1417 45.2737 56.35 44.457 56.35C43.707 56.35 43.1487 56.1667 42.782 55.8C42.4154 55.4333 42.232 54.925 42.232 54.275C42.232 53.8417 42.307 53.3667 42.457 52.85L45.107 43.65H42.857L42.982 43.15H45.232L46.332 39.35C47.232 39.3167 47.982 39.2 48.582 39L47.407 43.15H50.707L50.632 43.65H47.257L44.357 53.875ZM50.2555 52.425C50.2555 51.1083 50.5471 49.7 51.1305 48.2C51.7138 46.6833 52.5555 45.4083 53.6555 44.375C54.7555 43.325 56.0305 42.8 57.4805 42.8C58.5471 42.8 59.3805 43.1333 59.9805 43.8C60.5971 44.45 60.9055 45.425 60.9055 46.725C60.9055 48.0417 60.6138 49.4583 60.0305 50.975C59.4471 52.475 58.6055 53.75 57.5055 54.8C56.4055 55.8333 55.1305 56.35 53.6805 56.35C52.6138 56.35 51.7721 56.025 51.1555 55.375C50.5555 54.7083 50.2555 53.725 50.2555 52.425ZM57.3305 43.3C56.4805 43.3 55.6721 43.8417 54.9055 44.925C54.1555 46.0083 53.5471 47.3667 53.0805 49C52.6305 50.6167 52.4055 52.175 52.4055 53.675C52.4055 54.425 52.5221 54.975 52.7555 55.325C52.9888 55.675 53.3471 55.85 53.8305 55.85C54.6805 55.85 55.4805 55.3083 56.2305 54.225C56.9971 53.1417 57.6055 51.7917 58.0555 50.175C58.5221 48.5417 58.7555 46.975 58.7555 45.475C58.7555 44.725 58.6388 44.175 58.4055 43.825C58.1721 43.475 57.8138 43.3 57.3305 43.3ZM73.0125 41.775C73.4625 41.775 73.8125 41.9 74.0625 42.15C74.3292 42.4 74.4625 42.775 74.4625 43.275C74.4625 43.7083 74.3542 44.0417 74.1375 44.275C73.9208 44.5083 73.6625 44.625 73.3625 44.625C73.0458 44.625 72.7625 44.5167 72.5125 44.3C72.2792 44.0833 72.1625 43.7667 72.1625 43.35C72.1625 43.05 72.2375 42.7 72.3875 42.3C71.7375 42.5833 71.2625 42.9333 70.9625 43.35C71.6625 43.8333 72.0125 44.5833 72.0125 45.6C72.0125 46.3333 71.8292 47.05 71.4625 47.75C71.1125 48.45 70.6042 49.0583 69.9375 49.575C69.2875 50.075 68.5292 50.4083 67.6625 50.575L66.8375 51.025C66.0542 51.4417 65.4792 51.775 65.1125 52.025C64.7625 52.275 64.5875 52.5167 64.5875 52.75C64.5875 52.9333 64.7042 53.0917 64.9375 53.225C65.1708 53.3583 65.5542 53.4917 66.0875 53.625L67.9125 54.1C68.8625 54.35 69.5708 54.625 70.0375 54.925C70.5042 55.225 70.7375 55.675 70.7375 56.275C70.7375 56.9083 70.4708 57.5833 69.9375 58.3C69.4208 59.0167 68.6125 59.625 67.5125 60.125C66.4292 60.625 65.0875 60.875 63.4875 60.875C62.2042 60.875 61.2292 60.7083 60.5625 60.375C59.8792 60.0417 59.5375 59.5833 59.5375 59C59.5375 58.4333 59.8458 57.8583 60.4625 57.275C61.0792 56.7083 61.9542 56.2583 63.0875 55.925L63.2625 56.3C62.1792 56.8667 61.6375 57.625 61.6375 58.575C61.6375 59.2083 61.8542 59.675 62.2875 59.975C62.7375 60.2917 63.3292 60.45 64.0625 60.45C64.7958 60.45 65.5542 60.3 66.3375 60C67.1208 59.7 67.7625 59.3 68.2625 58.8C68.7792 58.3167 69.0375 57.8083 69.0375 57.275C69.0375 57.0417 68.9708 56.8833 68.8375 56.8C68.7042 56.7167 68.4292 56.625 68.0125 56.525L64.1875 55.55C63.2875 55.3167 62.8375 54.8167 62.8375 54.05C62.8375 53.5333 63.1042 53.025 63.6375 52.525C64.1875 52.0083 65.2125 51.3917 66.7125 50.675H66.5375C65.5708 50.675 64.7875 50.45 64.1875 50C63.5875 49.5333 63.2875 48.85 63.2875 47.95C63.2875 47.25 63.4708 46.5 63.8375 45.7C64.2042 44.9 64.7958 44.2167 65.6125 43.65C66.4292 43.0833 67.4625 42.8 68.7125 42.8C69.4292 42.8 70.0292 42.9083 70.5125 43.125C70.8292 42.725 71.2125 42.4 71.6625 42.15C72.1125 41.9 72.5625 41.775 73.0125 41.775ZM66.7875 50.225C67.5542 50.225 68.1625 49.9333 68.6125 49.35C69.0625 48.75 69.3708 48.0583 69.5375 47.275C69.7042 46.4917 69.7875 45.7667 69.7875 45.1C69.7875 44.4833 69.7042 44.025 69.5375 43.725C69.3708 43.4083 69.0625 43.25 68.6125 43.25C67.8125 43.25 67.1708 43.6083 66.6875 44.325C66.2208 45.025 65.8958 45.8 65.7125 46.65C65.5458 47.5 65.4625 48.1917 65.4625 48.725C65.4625 49.725 65.9042 50.225 66.7875 50.225ZM83.043 42.8C83.493 42.8 83.8513 42.9333 84.118 43.2C84.3846 43.4667 84.518 43.8083 84.518 44.225C84.518 44.725 84.343 45.15 83.993 45.5C83.643 45.85 83.2346 46.025 82.768 46.025C82.468 46.025 82.2263 45.95 82.043 45.8C81.8596 45.6333 81.768 45.4083 81.768 45.125C81.768 44.7417 81.868 44.4167 82.068 44.15C82.268 43.8833 82.543 43.675 82.893 43.525C82.8263 43.4583 82.7346 43.425 82.618 43.425C81.718 43.425 80.7346 44.4 79.668 46.35C78.618 48.2833 77.6263 50.8417 76.693 54.025L76.193 56H74.018L77.018 45.275C77.1346 44.9083 77.193 44.5833 77.193 44.3C77.193 43.9167 77.018 43.725 76.668 43.725C76.3013 43.725 75.9596 43.925 75.643 44.325C75.343 44.7083 75.0346 45.3583 74.718 46.275L74.393 47.2H73.918L74.543 45.375C75.143 43.6583 76.1513 42.8 77.568 42.8C78.518 42.8 78.993 43.2833 78.993 44.25C78.993 44.7167 78.8763 45.4 78.643 46.3L77.843 49.45C78.743 47.0333 79.5846 45.325 80.368 44.325C81.168 43.3083 82.0596 42.8 83.043 42.8ZM94.6992 51.925H95.1742L94.5492 53.75C94.2159 54.6667 93.7909 55.3333 93.2742 55.75C92.7576 56.15 92.2242 56.35 91.6742 56.35C91.3576 56.35 91.0826 56.2917 90.8492 56.175C90.6159 56.0583 90.4326 55.9 90.2992 55.7C90.1492 55.45 90.0742 55.1583 90.0742 54.825C90.0742 54.475 90.1326 54.0833 90.2492 53.65C90.3659 53.2167 90.4409 52.9417 90.4742 52.825L90.9242 51.025C90.1242 52.8917 89.3076 54.25 88.4742 55.1C87.6576 55.9333 86.7992 56.35 85.8992 56.35C85.1326 56.35 84.5492 56.075 84.1492 55.525C83.7492 54.975 83.5492 54.2417 83.5492 53.325C83.5492 51.975 83.9076 50.4667 84.6242 48.8C85.3409 47.1333 86.2742 45.7167 87.4242 44.55C88.5742 43.3833 89.7409 42.8 90.9242 42.8C91.3742 42.8 91.7409 42.9667 92.0242 43.3C92.3076 43.6333 92.4742 44.1 92.5242 44.7L92.9242 43.15C93.8409 43.1167 94.6076 43 95.2242 42.8L92.0992 53.85C92.0826 53.9167 92.0492 54.05 91.9992 54.25C91.9492 54.4333 91.9242 54.6083 91.9242 54.775C91.9242 55.1917 92.1076 55.4 92.4742 55.4C93.2076 55.4 93.8492 54.55 94.3992 52.85L94.6992 51.925ZM86.6242 55.55C87.0909 55.55 87.6492 55.1917 88.2992 54.475C88.9492 53.7583 89.5826 52.8083 90.1992 51.625C90.8326 50.425 91.3492 49.15 91.7492 47.8L92.1992 46.025C92.2159 45.8917 92.2242 45.7083 92.2242 45.475C92.2242 44.7917 92.0992 44.2583 91.8492 43.875C91.6159 43.475 91.2826 43.275 90.8492 43.275C90.1326 43.275 89.3742 43.8333 88.5742 44.95C87.7742 46.05 87.0992 47.4167 86.5492 49.05C86.0159 50.6667 85.7492 52.1917 85.7492 53.625C85.7492 54.3083 85.8242 54.8 85.9742 55.1C86.1242 55.4 86.3409 55.55 86.6242 55.55ZM106.635 42.8C107.452 42.8 108.085 43.1 108.535 43.7C109.002 44.2833 109.235 45.1583 109.235 46.325C109.235 47.675 108.935 49.1417 108.335 50.725C107.735 52.2917 106.877 53.625 105.76 54.725C104.643 55.8083 103.36 56.35 101.91 56.35C101.46 56.35 101.052 56.225 100.685 55.975C100.318 55.7083 100.052 55.35 99.8852 54.9L98.9352 58.2C98.8685 58.4 98.8352 58.6 98.8352 58.8C98.8352 59.2333 99.0185 59.5417 99.3852 59.725C99.7518 59.9083 100.277 60 100.96 60L100.81 60.525L100.285 60.5C98.8352 60.45 97.8935 60.425 97.4602 60.425C97.0102 60.425 96.0852 60.4583 94.6852 60.525L94.8352 60C95.4352 60 95.8685 59.8917 96.1352 59.675C96.4018 59.4583 96.6185 59.05 96.7852 58.45L101.46 41.775C100.96 42.8917 100.377 43.875 99.7102 44.725C99.0435 45.575 98.2185 46.4667 97.2352 47.4L96.9602 47.075C97.7435 46.3083 98.3935 45.625 98.9102 45.025C99.4435 44.425 99.9685 43.7 100.485 42.85C101.018 41.9833 101.543 40.925 102.06 39.675L102.16 39.325C103.06 39.2917 103.818 39.175 104.435 38.975L101.835 48.075C102.618 46.225 103.393 44.8833 104.16 44.05C104.943 43.2167 105.768 42.8 106.635 42.8ZM101.885 55.775C102.768 55.775 103.61 55.225 104.41 54.125C105.21 53.0083 105.852 51.6583 106.335 50.075C106.835 48.4917 107.085 47.0583 107.085 45.775C107.085 45.0583 106.977 44.5167 106.76 44.15C106.56 43.7833 106.277 43.6 105.91 43.6C105.443 43.6 104.893 43.9833 104.26 44.75C103.643 45.5 103.018 46.5167 102.385 47.8C101.752 49.0833 101.193 50.4833 100.71 52L100.06 54.275C100.26 54.8083 100.51 55.1917 100.81 55.425C101.11 55.6583 101.468 55.775 101.885 55.775ZM122.33 51.95L121.705 53.775C121.105 55.4917 120.096 56.35 118.68 56.35C117.513 56.35 116.93 55.8333 116.93 54.8C116.93 54.3 117.063 53.65 117.33 52.85L119.705 45.7C119.871 45.2333 119.955 44.8167 119.955 44.45C119.955 43.8833 119.688 43.6 119.155 43.6C118.538 43.6 117.871 43.9917 117.155 44.775C116.455 45.5417 115.746 46.625 115.03 48.025C114.313 49.425 113.646 51.05 113.03 52.9L112.13 56H109.955L114.905 39.325C114.988 39.0417 115.03 38.8167 115.03 38.65C115.03 38.3167 114.896 38.075 114.63 37.925C114.363 37.7583 113.921 37.675 113.305 37.675L113.455 37.15C115.188 37.1333 116.688 36.7917 117.955 36.125L114.33 48.525C115.23 46.4917 116.13 45.0333 117.03 44.15C117.93 43.25 118.913 42.8 119.98 42.8C121.33 42.8 122.005 43.4333 122.005 44.7C122.005 45.2333 121.88 45.8583 121.63 46.575L119.205 53.875C119.071 54.275 119.005 54.5917 119.005 54.825C119.005 55.225 119.205 55.425 119.605 55.425C119.938 55.425 120.255 55.2417 120.555 54.875C120.871 54.4917 121.196 53.825 121.53 52.875L121.855 51.95H122.33ZM133.983 44.45C133.983 45.8 133.225 46.9833 131.708 48C130.191 49.0167 128.458 49.8417 126.508 50.475C126.325 51.3083 126.233 52.1167 126.233 52.9C126.233 54.5 126.808 55.3 127.958 55.3C129.391 55.3 130.675 54.4667 131.808 52.8L132.208 53C131.675 53.9167 130.95 54.7083 130.033 55.375C129.133 56.025 128.183 56.35 127.183 56.35C126.15 56.35 125.341 56.05 124.758 55.45C124.175 54.85 123.883 53.975 123.883 52.825C123.883 51.5583 124.25 50.1333 124.983 48.55C125.733 46.95 126.741 45.5917 128.008 44.475C129.275 43.3583 130.65 42.8 132.133 42.8C132.666 42.8 133.108 42.9417 133.458 43.225C133.808 43.5083 133.983 43.9167 133.983 44.45ZM131.583 43.275C131.05 43.275 130.45 43.5917 129.783 44.225C129.133 44.8417 128.516 45.6667 127.933 46.7C127.366 47.7333 126.933 48.8333 126.633 50C128.216 49.45 129.35 48.9167 130.033 48.4C130.65 47.9167 131.125 47.3333 131.458 46.65C131.808 45.95 131.983 45.2 131.983 44.4C131.983 43.95 131.95 43.65 131.883 43.5C131.816 43.35 131.716 43.275 131.583 43.275ZM144.176 42.8C144.626 42.8 144.984 42.9333 145.251 43.2C145.517 43.4667 145.651 43.8083 145.651 44.225C145.651 44.725 145.476 45.15 145.126 45.5C144.776 45.85 144.367 46.025 143.901 46.025C143.601 46.025 143.359 45.95 143.176 45.8C142.992 45.6333 142.901 45.4083 142.901 45.125C142.901 44.7417 143.001 44.4167 143.201 44.15C143.401 43.8833 143.676 43.675 144.026 43.525C143.959 43.4583 143.867 43.425 143.751 43.425C142.851 43.425 141.867 44.4 140.801 46.35C139.751 48.2833 138.759 50.8417 137.826 54.025L137.326 56H135.151L138.151 45.275C138.267 44.9083 138.326 44.5833 138.326 44.3C138.326 43.9167 138.151 43.725 137.801 43.725C137.434 43.725 137.092 43.925 136.776 44.325C136.476 44.7083 136.167 45.3583 135.851 46.275L135.526 47.2H135.051L135.676 45.375C136.276 43.6583 137.284 42.8 138.701 42.8C139.651 42.8 140.126 43.2833 140.126 44.25C140.126 44.7167 140.009 45.4 139.776 46.3L138.976 49.45C139.876 47.0333 140.717 45.325 141.501 44.325C142.301 43.3083 143.192 42.8 144.176 42.8Z" fill="#252525"/>
</svg>
